<svg width="586" height="502" viewBox="0 0 586 502" fill="none" xmlns="http://www.w3.org/2000/svg">
<g clip-path="url(#clip0_402_32)">
<path opacity="0.7" d="M86.418 123.868L299.879 459.463L514.193 123.868H86.418Z" stroke="#2B2B39" stroke-linecap="round" stroke-linejoin="round" stroke-dasharray="3 3"/>
<circle cx="483.635" cy="130.633" r="96.4193" fill="white"/>
<circle cx="483.635" cy="130.633" r="95.4193" stroke="#FFAF2E" stroke-opacity="0.6" stroke-width="2"/>
<mask id="mask0_402_32" style="mask-type:alpha" maskUnits="userSpaceOnUse" x="308" y="0" width="278" height="272">
<path d="M580.055 130.633C580.055 77.3819 536.887 0.000244141 483.636 0.000244141C434.163 0.000244141 393.393 66.7902 387.857 118.969C338.732 112.749 272.914 88.6438 332.787 133.743C356.538 151.634 371.155 177.547 399.671 178.065C416.229 207.313 447.627 227.052 483.636 227.052C510.135 227.052 534.137 216.362 551.566 199.059L546.991 242.234C546.991 325.435 602.847 210.257 580.055 130.633Z" fill="#C4C4C4"/>
</mask>
<g mask="url(#mask0_402_32)">
<path d="M479.097 78.5015C453.151 99.1984 455.796 143.2 454.229 167.151C453.128 183.906 449.68 207.917 447.49 221.659L496.103 228.817V144.576C496.103 116.496 498.057 81.9856 505.717 74.5523C500.382 73.9613 495.67 74.1128 492.441 74.5523C489.88 74.5318 486.673 74.9636 483.163 76.3843C481.619 77.3 480.484 77.7101 479.097 78.5015Z" fill="white"/>
<path opacity="0.5" d="M479.097 78.501C453.151 99.1979 455.796 143.199 454.229 167.15C453.128 183.905 449.68 207.917 447.49 221.658C465.977 228.461 474.079 230.082 496.103 228.816V144.576C496.103 122.869 497.271 97.3188 501.342 83.4058C496.962 90.4272 490.891 124.316 491.817 144.576C492.744 164.836 492.126 204.304 486.258 215.295C480.383 226.286 450.107 218.042 452.887 209.494C455.667 200.945 455.667 173.163 458.138 141.107C460.115 115.462 472.936 88.684 479.097 78.501Z" fill="#FFB83B"/>
<path d="M486.26 215.295C480.385 226.286 450.109 218.043 452.889 209.494C459.993 220.485 476.987 217.127 479.767 212.853C482.547 208.579 486.877 197.893 486.877 179.88C486.877 165.47 490.584 137.851 492.437 125.843C491.831 132.552 491.567 139.068 491.819 144.576C492.746 164.836 492.128 204.304 486.26 215.295Z" fill="#FFF9EF"/>
<path d="M458.137 141.108C459.687 121.07 467.847 100.339 474.283 87.3748C470.65 95.2109 463.456 115.463 463.703 133.78C463.95 152.098 458.424 174.996 455.627 184.155C456.284 172.127 456.902 157.153 458.137 141.108Z" fill="#FFF9EF"/>
<path d="M442.689 254.984L431.873 253.458C433.524 242.158 444.975 186.962 449.721 150.633C450.754 142.707 451.827 134.415 452.916 125.856C457.123 92.7064 471.685 82.9329 483.159 76.3843C457.213 97.0812 455.792 143.2 454.225 167.151C453.124 183.906 449.676 207.917 447.486 221.659C447.171 223.631 442.942 253.487 442.689 254.984Z" fill="#FFAF2E"/>
<path d="M449.721 150.632C450.754 142.707 451.827 134.415 452.916 125.856C452.596 136.232 451.827 153.281 449.721 170.721C445.761 203.525 441.454 233.307 431.873 253.457C433.524 242.157 444.975 186.962 449.721 150.632Z" fill="#F3A00D"/>
<path d="M546.502 254.068C541.251 231.171 533.523 141.108 533.523 141.108C533.523 141.108 539.752 109.326 529.508 93.7863C522.96 83.8463 505.718 74.5522 505.718 74.5522C498.058 81.9855 496.103 116.496 496.103 144.576V228.816V258.037C509.425 260.784 531.67 262.006 546.502 254.068Z" fill="#FFAF2E"/>
<path d="M499.995 88.9014C497.007 103.407 496.103 125.479 496.103 144.576V216.516C497.401 205.933 499.72 178.17 498.614 151.793C497.507 125.415 499.074 98.8741 499.995 88.9014Z" fill="#F9A319"/>
<path d="M546.502 254.068C541.251 231.171 533.523 141.108 533.523 141.108C533.523 141.108 539.752 109.326 529.508 93.7861C529.508 110.272 521.477 132.559 526.11 154.846C532.344 184.817 537.539 212.242 531.67 233.002C526.975 249.611 505.999 256.612 496.103 258.037C509.425 260.784 531.67 262.006 546.502 254.068Z" fill="#F9A319"/>
<path d="M580.793 164.31C582.646 145.382 564.113 117.6 543.103 96.8394C533.758 87.6059 514.68 76.6897 505.716 74.5525L533.522 141.108C533.522 141.108 542.159 150.633 553.15 167.151C556.553 159.718 570.908 154.846 580.793 164.31Z" fill="#FFAF2E"/>
<path d="M580.794 164.31C582.647 145.381 564.108 117.599 543.104 96.839C538.224 92.0185 530.692 86.7391 523.33 82.4897C525.7 86.5604 530.805 95.8622 532.287 100.502C534.141 106.303 573.998 129.49 570.6 159.265C574.122 159.768 577.677 161.327 580.794 164.31Z" fill="#F9A319"/>
<path d="M549.844 159.262C550.428 153.498 555.92 150.136 559.812 149.175C568.562 147.014 577.307 149.656 581.681 156.14C585.5 161.795 581.199 170.07 577.307 173.192C578.037 162.384 573.909 158.542 564.912 159.983C555.92 161.424 553.247 166.948 552.764 171.751C550.574 170.07 549.114 166.467 549.844 159.262Z" fill="#F9A319"/>
<path d="M564.911 159.983C555.919 161.424 553.246 166.948 552.757 171.751C553.572 181.758 555.043 205.279 554.459 219.305C553.734 236.837 552.757 242.841 549.601 250.526C546.439 258.212 550.618 266.195 556.694 264.754C562.771 263.312 567.73 256.29 566.275 250.526C564.815 244.762 566.275 238.998 568.701 234.915C571.133 230.832 577.305 195.768 577.305 173.192C578.035 162.384 573.902 158.542 564.911 159.983Z" fill="#FFD0B7"/>
<path d="M452.919 125.856C457.126 92.7064 471.688 82.9329 483.162 76.3843C473.57 81.4911 451.942 87.3748 436.166 115.12C422.766 138.685 412.584 144.891 408.4 145.992C413.455 150.672 422.21 164.745 421.373 173.774C426.815 169.81 442.411 156.506 449.723 150.633C450.757 142.707 451.83 134.415 452.919 125.856Z" fill="#FFAF2E"/>
<path d="M449.722 150.632C450.755 142.707 451.828 134.415 452.917 125.856C449.935 140.829 438.675 149.656 432.497 151.793C427.549 153.502 422.573 162.886 420.709 167.363C421.287 169.638 421.551 171.824 421.371 173.775C426.813 169.81 442.409 156.506 449.722 150.632Z" fill="#F9A319"/>
<path d="M416.629 160.666C413.17 149.978 408.093 146.654 405.925 146.298C406.65 145.585 408.57 143.939 410.951 143.298C413.922 142.496 422.307 143.298 426.093 149.444C429.299 154.648 432.854 163.071 426.093 171.355C420.684 177.981 409.059 177.322 403.92 176.164C409.598 175.452 419.746 170.286 416.629 160.666Z" fill="#F9A319"/>
<path d="M403.919 176.164C409.597 175.452 419.745 170.286 416.628 160.666C414.14 152.98 410.871 147.519 405.924 146.297C404.755 146.728 402.459 147.68 393.372 143.832C382.016 139.023 344.97 122.188 342.266 119.784C339.561 117.379 333.613 109.096 325.23 109.363C316.848 109.63 319.822 124.86 329.827 127.533C339.832 130.205 348.215 137.419 353.082 142.764C357.949 148.107 384.178 174.027 403.919 176.164Z" fill="#FFD0B7"/>
<path d="M482.902 76.3958V59.8217L505.715 48.9072V74.5522C495.544 93.2867 481.976 88.5185 482.902 76.3958Z" fill="#FFD0B7"/>
<path d="M485.425 58.6158L505.716 48.9072V74.5522C505.699 74.5894 505.677 74.626 505.66 74.6632C504.638 76.529 503.588 78.1595 502.515 79.5713C498.741 73.9556 488.761 65.2415 482.903 60.8895V60.0288L485.425 58.6158Z" fill="url(#paint0_linear_402_32)"/>
<path d="M471.58 18.0428C471.58 27.7703 476.516 28.9534 480.15 28.4401L502.367 52.3153C502.626 52.8286 505.114 54.9453 505.114 59.94C505.114 65.0052 509.146 54.493 512.134 52.3153C518.323 47.8073 522.529 47.6736 524.489 40.2387C526.174 33.8566 523.798 29.3386 521.85 28.4401C520.682 27.9268 519.435 26.8229 517.565 26.5149C515.694 26.2064 515.223 23.0492 515.223 21.5086C515.093 20.3537 514.588 18.7471 511.606 16.8874C509.753 15.7325 504.962 15.2186 503.142 16.8874C501.974 17.5295 499.323 18.1971 498.077 15.7325C496.83 13.2679 494.179 14.1919 493.011 14.9617C489.585 16.1937 481.638 12.5747 478.549 3.11035C474.843 7.99516 471.58 11.3533 471.58 18.0428Z" fill="#2B2B39"/>
<path d="M521.851 28.4404C520.683 27.9265 519.436 26.8227 517.566 26.5146C527.203 33.6016 519.436 44.9562 513.258 48.0085C508.316 50.4503 505.772 56.9801 505.115 59.9403C505.115 65.0049 509.147 54.4927 512.135 52.315C518.324 47.807 522.53 47.6733 524.49 40.239C526.175 33.8569 523.8 29.3383 521.851 28.4404Z" fill="#13131C"/>
<path d="M493.013 14.9617C489.587 16.1937 481.641 12.5742 478.552 3.11035C478.608 8.80319 481.416 19.7599 492.199 18.0428C493.884 17.4851 495.849 16.3751 498.096 18.595C500.342 20.8149 506.026 15.7319 511.608 16.8874C509.755 15.7319 504.964 15.218 503.145 16.8874C501.977 17.5289 499.326 18.1965 498.079 15.7319C496.832 13.2673 494.187 14.1914 493.013 14.9617Z" fill="#13131C"/>
<path d="M491.458 60.7871C500.5 58.0145 504.055 51.6734 504.707 48.8498C504.971 47.6943 505.616 44.4855 505.487 43.0737C504.549 40.3011 501.719 44.2286 500.421 46.5394C498.686 49.6201 498.372 38.8376 500.421 36.1422C503.224 32.445 498.86 31.466 496.911 30.3661C496.002 29.8522 493.486 28.9798 490.678 29.5958C487.869 30.2118 486.392 28.5685 485.999 27.67C484.96 26.0018 482.259 23.6654 479.765 27.67C473.84 36.6044 474.958 48.3364 476.261 53.0858C477.558 56.808 482.416 63.5597 491.458 60.7871Z" fill="#FFD0B7"/>
</g>
<g filter="url(#filter0_d_402_32)">
<circle cx="97.659" cy="124.022" r="97.659" fill="white"/>
<circle cx="97.659" cy="124.022" r="96.659" stroke="#217BF4" stroke-opacity="0.6" stroke-width="2"/>
</g>
<mask id="mask1_402_32" style="mask-type:alpha" maskUnits="userSpaceOnUse" x="0" y="0" width="220" height="246">
<path d="M0 124.45C0 70.5139 43.7234 0.0868868 97.659 0.0868868C227.668 -3.57533 224.056 109.445 216.681 166.412H185.868C170.172 199.348 136.574 222.109 97.659 222.109C84.7082 222.109 72.3462 219.588 61.0369 215.01C60.269 214.699 59.506 214.379 58.748 214.049C56.2048 220.296 51.271 234.774 51.8813 242.708C39.674 252.627 9.75362 233.4 12.2006 171.753C4.4267 157.739 0 141.611 0 124.45Z" fill="#C4C4C4"/>
</mask>
<g mask="url(#mask1_402_32)">
<path d="M209.623 144.067C203.649 145.878 196.24 148.437 190.742 147.102C186.335 146.031 186.666 144.639 186.168 141.719C187.565 139.35 193.469 134.795 204.899 132.472C219.185 129.567 220.128 140.881 209.623 144.067Z" fill="#FEBE9D"/>
<path d="M144.666 101.386C142.906 97.1124 138.068 96.4003 135.869 96.5782C119.845 102.989 129.585 149.198 133.355 155.342C137.125 161.485 141.524 163.889 145.923 165.759C150.321 167.629 159.119 166.56 161.318 165.225C163.518 163.889 164.146 162.553 166.659 162.286C169.173 162.019 173.258 161.218 174.828 159.615C176.399 158.013 177.656 156.41 181.427 156.41C185.197 156.41 188.339 153.739 189.595 152.137C190.852 150.534 191.795 150.267 193.994 149.732C196.194 149.198 198.393 149.198 199.021 146.527C199.65 143.856 199.964 138.514 199.65 135.843C199.335 133.172 199.335 133.172 197.764 133.439C196.194 133.706 192.109 135.843 190.852 135.843C189.595 135.843 187.396 135.576 185.197 136.377C182.997 137.179 175.771 140.117 171.058 141.452C166.345 142.788 159.433 143.055 160.061 141.185C160.69 139.316 162.889 133.974 158.49 133.974C154.092 133.974 154.092 131.035 152.207 124.892C150.321 118.748 146.865 106.728 144.666 101.386Z" fill="#217BF4"/>
<path d="M191.168 147.597C192.529 147.508 195.629 146.956 197.137 145.46M192.424 138.783C193.367 137.981 195.818 136.378 198.08 136.378L192.424 138.783ZM194.624 140.118L197.137 139.05L194.624 140.118ZM191.482 143.858C192.948 143.679 196.257 143.003 197.766 141.721L191.482 143.858Z" stroke="#2068D9" stroke-width="1.07894"/>
<path d="M192.02 150.286C191.446 148.156 190.874 144.831 191.481 142.254C190.852 144.123 189.03 148.504 186.768 151.068C183.94 154.274 180.484 154.006 179.856 151.335C179.227 148.664 175.457 150.267 174.2 153.472C172.944 156.677 170.116 160.684 165.403 160.951C160.988 161.201 158.779 162.154 157.484 162.713C157.397 162.751 157.313 162.787 157.234 162.821C155.977 163.355 156.291 161.218 157.548 159.883C158.805 158.547 160.376 155.075 160.061 153.205C158.491 156.143 155.349 160.15 150.322 161.485C145.294 162.821 142.467 159.616 146.237 156.677C150.007 153.739 152.835 151.068 153.777 148.664C154.134 147.756 153.637 148.068 152.644 148.693C151.01 149.722 148.031 151.596 145.294 150.267C140.896 148.13 141.524 141.987 144.98 140.918C146.084 140.577 147.734 140.481 149.509 140.377C153.289 140.158 157.635 139.905 158.491 137.179C156.606 138.247 145.609 139.85 145.294 133.172C144.98 126.495 144.352 121.954 142.781 118.214C142.259 116.972 142.014 115.347 141.76 113.652C141.247 110.244 140.691 106.553 137.754 105.126C136.915 104.719 133.447 104.874 128.709 105.696C123.829 121.33 130.412 150.546 133.355 155.342C137.125 161.486 141.524 163.89 145.923 165.759C150.321 167.629 159.119 166.561 161.318 165.225C162.037 164.789 162.589 164.352 163.092 163.953C164.13 163.131 164.968 162.467 166.659 162.287C169.173 162.02 173.258 161.219 174.828 159.616C174.941 159.501 175.052 159.386 175.163 159.271C176.593 157.791 177.927 156.411 181.427 156.411C185.197 156.411 188.339 153.74 189.595 152.137C190.396 151.116 191.069 150.637 192.02 150.286Z" fill="#1771EA"/>
<path d="M136.4 159.417C137.962 157.682 140.614 155.244 143.095 154.54C146.866 153.472 144.98 152.938 141.838 154.006C138.697 155.074 138.068 154.273 137.754 150.801C137.44 147.328 138.697 141.185 140.582 136.911C142.467 132.637 144.98 119.282 139.639 114.207C137.182 111.873 132 112.138 127.149 114.535C125.936 130.448 130.906 151.35 133.355 155.341C134.332 156.932 135.35 158.272 136.4 159.417Z" fill="#2068D9"/>
<path d="M188.967 147.864C191.732 144.659 191.376 138.871 190.852 136.378C191.69 138.516 192.863 143.537 190.852 146.529C188.339 150.268 188.339 148.665 188.967 147.864Z" fill="#3881F2"/>
<path d="M113.249 225.056C122.548 221.424 134.928 223.187 139.955 224.522C140.583 224.682 141.212 224.522 142.468 220.783C143.725 217.044 142.783 207.695 142.468 206.894C142.154 206.092 142.154 205.558 142.468 204.223C144.039 195.408 138.07 174.307 135.556 162.554C133.042 150.802 136.499 139.85 139.955 131.837C143.411 123.824 140.583 113.407 139.64 102.723C138.698 92.0386 128.016 91.2374 113.563 88.299C99.1097 85.3611 80.5724 85.361 72.4034 102.99C64.2343 120.619 71.7749 143.59 72.4034 156.678C73.0315 169.766 66.748 180.985 62.6632 192.47C58.5789 203.956 59.5215 212.503 58.2645 219.982C57.259 225.965 59.3117 228.529 60.4641 229.063C60.5688 230.399 60.7781 233.978 60.7781 237.611C60.7781 242.151 62.6633 244.555 67.3761 244.288C72.0889 244.021 79.6299 241.35 86.2278 237.076C92.8258 232.803 101.623 229.597 113.249 225.056Z" fill="#217BF4"/>
<path d="M113.563 174.574C105.017 180.984 94.5018 179.737 90.3127 178.313C90.3127 179.47 92.3237 182.373 100.367 184.724C110.421 187.662 117.333 180.984 120.161 175.642C122.423 171.368 127.387 165.314 129.587 162.821C127.806 164.067 122.109 168.163 113.563 174.574Z" fill="#3881F2"/>
<path d="M139.955 224.522C134.928 223.187 122.548 221.424 113.248 225.056C111.972 225.555 110.73 226.037 109.521 226.506C99.7183 230.314 92.1018 233.272 86.2278 237.076C79.6299 241.35 72.0889 244.021 67.3761 244.288C62.6633 244.555 60.7781 242.151 60.7781 237.61C60.7781 233.978 60.5688 230.399 60.4641 229.063C59.3117 228.529 57.259 225.964 58.2645 219.982C58.6677 217.584 58.8444 215.076 59.0335 212.396C59.4335 206.72 59.8885 200.273 62.6632 192.47C63.6082 189.813 64.671 187.17 65.7385 184.515C69.2855 175.693 72.8862 166.738 72.4034 156.678C72.2366 153.209 71.5846 149.045 70.8677 144.47C68.8811 131.787 66.3997 115.946 72.4034 102.989C72.5065 102.767 72.6112 102.548 72.7174 102.331C85.0683 92.4903 97.3169 88.3001 107.585 87.3137C109.628 87.5661 111.632 87.9064 113.563 88.2989C115.109 88.6133 116.613 88.9035 118.067 89.1837C123.694 90.2688 128.564 91.2082 132.252 92.8569C132.884 93.4651 133.361 94.088 133.671 94.7086C138.07 103.523 128.958 113.673 121.732 118.748C114.505 123.823 116.076 125.959 124.245 123.822C131.486 121.928 130.334 122.552 121.446 127.368C120.307 127.986 119.04 128.672 117.647 129.431C105.394 136.109 119.218 133.437 129.272 131.3C139.326 129.164 137.441 134.239 135.242 136.375C134.321 137.271 133.289 137.79 132.379 138.25C131.115 138.887 130.083 139.407 129.901 140.649C129.586 142.786 127.387 145.19 124.559 146.258C124.336 146.343 124.109 146.427 123.878 146.512C121.196 147.509 118.127 148.648 116.39 151.6C114.505 154.806 109.792 155.339 104.137 155.072C98.4812 154.805 90.9407 156.941 97.8531 162.551C104.765 168.16 114.505 164.153 119.532 162.016C107.907 174.303 91.2547 165.222 88.1129 160.948C84.9712 156.674 83.4001 155.339 79.3154 156.407C75.2311 157.476 73.9745 162.549 77.7447 163.618C79.4153 164.091 81.1476 163.883 82.559 163.713C84.3327 163.5 85.5993 163.348 85.5993 164.687C85.5993 166.721 80.6469 170.287 76.2676 173.44C75.4731 174.012 74.6977 174.57 73.9744 175.104C69.2612 178.576 74.6026 181.514 78.0588 182.583C81.515 183.651 80.5724 184.986 74.917 190.329C67.062 198.076 82.1435 205.287 95.9679 197.007C107.028 190.383 116.704 189.795 120.161 190.329C116.181 191.309 106.525 194.817 99.7382 201.014C94.0179 206.237 86.4408 207.695 79.7035 208.992C76.4491 209.618 73.3905 210.206 70.8323 211.164C62.9773 214.102 67.062 219.978 73.66 220.245C77.1795 220.388 83.3806 217.034 90.4992 213.185C96.7266 209.817 103.656 206.071 110.106 203.952C123.931 199.411 133.357 202.884 138.384 204.754C130.215 204.22 107.279 210.897 95.3394 217.575C89.5646 220.805 85.2598 222.035 81.5011 223.109C77.4884 224.256 74.0975 225.225 70.2038 228.259C62.6633 234.136 72.7174 238.142 79.9439 237.074C83.1724 236.596 87.7173 233.987 92.907 231.007C99.3342 227.317 106.75 223.06 113.877 221.582C123.41 219.605 135.471 221.743 141.453 223.343C140.818 224.59 140.386 224.631 139.955 224.522Z" fill="#1771EA"/>
<path d="M71.9969 152.197C73.2969 150.624 75.1698 148.235 76.1736 146.528C77.7443 143.858 78.6869 142.789 80.8864 144.659C83.0856 146.528 86.5418 146.262 88.427 144.125C88.39 144.272 88.3529 144.417 88.3163 144.561C87.4219 148.069 86.8014 150.504 93.1398 149.734C95.4576 149.452 98.7837 149.83 102.001 150.196C107.942 150.87 113.512 151.503 111.677 147.864C108.849 142.255 106.964 128.633 112.62 123.825C117.144 119.979 120.998 114.565 122.36 112.339C124.873 107.264 124.622 97.3817 103.508 98.45C95.1272 98.8739 85.9858 97.1162 77.4322 95.4177C75.5005 97.4748 73.8001 99.9741 72.4029 102.989C66.3993 115.946 68.8811 131.787 70.8677 144.47C71.2976 147.214 71.7044 149.81 71.9969 152.197Z" fill="#2068D9"/>
<path d="M127.701 214.638C134.237 214.852 135.661 210.809 135.556 208.762C135.556 207.159 137.441 207.159 136.499 214.104C135.556 221.049 124.245 217.309 114.505 218.11C104.765 218.912 90.9408 225.056 87.4846 226.925C104.451 214.371 119.532 214.371 127.701 214.638Z" fill="#3881F2"/>
<path d="M134.925 205.824C135.658 208.584 136.999 215.547 136.496 221.316M65.4885 230.665C65.4885 232.623 65.6772 237.342 66.4311 240.548L65.4885 230.665ZM73.0295 227.193C73.7623 229.596 75.1657 234.938 74.9146 237.075L73.0295 227.193ZM78.0563 224.521C78.5802 226.391 79.6274 231.573 79.6274 237.342L78.0563 224.521ZM84.3403 225.055V232V225.055ZM89.3671 221.316C89.9956 222.919 91.064 226.872 90.3097 229.863L89.3671 221.316ZM94.3944 218.378C94.9182 220.159 95.9655 224.415 95.9655 227.193L94.3944 218.378ZM100.678 216.775V223.72V216.775ZM106.648 213.303C107.172 215.618 107.905 221.102 106.648 224.521V213.303ZM111.047 211.967C111.78 213.481 113.12 217.31 112.618 220.515L111.047 211.967ZM118.587 210.632C118.587 212.947 118.587 217.79 118.587 218.645V210.632ZM122.672 208.495C122.986 210.632 123.614 215.814 123.614 219.446L122.672 208.495ZM131.155 211.7C131.26 213.837 131.281 218.592 130.527 220.515L131.155 211.7Z" stroke="#2068D9" stroke-width="1.07894"/>
<path d="M68.6331 225.858C89.1601 216.51 132.54 198.721 140.583 205.559" stroke="#3881F2" stroke-width="1.07894"/>
<path d="M58.2645 219.981C57.259 225.964 59.3117 228.528 60.4641 229.062C60.5138 229.699 60.5879 230.847 60.6511 232.268C63.5214 229.953 69.8897 225.002 72.4034 223.72C67.6905 225.056 61.4667 227.727 60.6511 221.85C59.8356 215.974 62.9773 209.831 64.8624 206.626C66.748 203.42 69.0025 193.804 66.6186 182.319C65.2645 185.716 63.8681 189.081 62.6632 192.469C58.5789 203.954 59.5215 212.502 58.2645 219.981Z" fill="#2068D9"/>
<path d="M35.3214 233.414C35.7508 227.186 36.8431 219.612 40.0457 214.947C42.6123 211.208 43.7957 212.012 46.7022 212.585C48.4202 214.732 51.3836 221.904 49.4937 233.414C47.1317 247.801 34.5663 244.365 35.3214 233.414Z" fill="#FEBE9D"/>
<path d="M33.7565 224.522C34.2592 223.454 34.5944 221.94 34.6991 221.317C35.6416 214.372 34.6991 207.695 34.6991 196.21C34.6991 184.724 37.5272 172.704 40.0404 168.43C42.554 164.157 41.9255 160.417 43.1826 158.281C44.4392 156.144 48.2095 153.74 46.9528 146.528C45.6958 139.316 50.0946 138.515 50.409 129.433C50.7231 120.352 52.6082 108.866 58.5781 100.853C64.5475 92.8397 86.541 87.4975 88.7406 102.723C90.9398 117.947 82.7708 128.098 79.3145 134.775C75.8587 141.453 71.46 155.876 70.8314 159.616C70.2029 163.355 67.3752 174.04 67.3752 178.58C67.3752 183.121 66.1186 191.401 64.2335 198.613C62.3483 205.825 58.2636 214.639 57.007 215.441C55.7504 216.242 55.1219 216.776 55.1219 218.112C55.1219 219.447 54.4934 223.988 54.1793 225.591C53.8648 227.193 53.5508 227.727 52.6082 227.193C51.6656 226.659 50.0946 226.659 47.2669 226.659C44.4392 226.659 39.7263 227.193 36.8986 226.926C34.0709 226.659 33.1284 225.858 33.7565 224.522Z" fill="#217BF4"/>
<path d="M46.0115 217.312C39.9791 218.594 36.7952 217.49 35.9573 216.777C37.7377 217.312 41.9693 217.745 45.3829 216.777C48.2106 215.975 52.1907 216.065 53.552 216.51C52.086 216.51 48.5251 216.67 46.0115 217.312Z" fill="#3881F2"/>
<path d="M50.4103 217.844C50.0962 218.912 49.7192 221.317 50.7247 222.385C51.7302 223.453 50.9341 224.433 50.4103 224.789M39.4135 220.248C39.6229 221.049 39.7905 223.079 38.7854 224.789L39.4135 220.248ZM43.8123 218.378L43.4982 224.254L43.8123 218.378Z" stroke="#2068D9" stroke-width="1.07894"/>
<path d="M50.4274 226.711C51.245 225.273 52.176 223.043 51.981 221.049C51.6665 217.844 47.2678 216.776 44.7545 217.31C47.8963 215.975 54.8087 213.037 56.6938 206.359C58.579 199.682 57.9505 195.675 51.981 195.141C50.724 195.141 49.4674 194.874 53.8661 191.668C58.2645 188.463 65.1769 182.32 58.579 178.58C51.981 174.841 47.5822 171.903 46.6397 167.896C49.7814 170.033 53.5517 172.437 55.1228 172.704C56.4817 172.935 56.4299 172.766 55.7815 170.643C55.68 170.311 55.5642 169.932 55.4368 169.499C54.4942 166.293 52.2951 158.28 52.2951 155.876C53.2376 158.815 54.8087 163.355 58.893 165.225C62.9777 167.095 64.2344 162.02 63.6059 158.547C62.9777 155.075 62.6633 152.404 66.748 149.466C70.8323 146.528 77.4303 136.111 72.7175 131.57C68.0046 127.029 59.5215 118.749 59.8356 112.338C60.08 107.354 59.5645 105.761 57.2559 102.788C57.6726 102.124 58.1133 101.478 58.579 100.853C62.8452 95.1261 75.2952 90.7639 82.8556 94.2973C83.5625 94.7236 84.2627 95.1559 84.9553 95.5938C86.891 97.1437 88.2702 99.4611 88.7415 102.723C90.5725 115.398 85.2168 124.556 81.3773 131.121C80.6051 132.441 79.8942 133.657 79.3154 134.775C75.8596 141.453 71.4608 155.876 70.8323 159.616C70.6381 160.773 70.2325 162.596 69.7656 164.697C68.7243 169.381 67.3761 175.445 67.3761 178.58C67.3761 183.121 66.1195 191.401 64.2344 198.613C62.3492 205.825 58.2645 214.639 57.0079 215.441C55.7513 216.242 55.1228 216.776 55.1228 218.112C55.1228 219.447 54.4943 223.988 54.1802 225.591C53.8661 227.193 53.5517 227.727 52.6091 227.193C52.0992 226.904 51.405 226.772 50.4274 226.711Z" fill="#1771EA"/>
<path d="M74.0865 148.076C72.4414 153.068 71.1517 157.717 70.8329 159.615C70.6382 160.772 70.233 162.595 69.7661 164.696C68.7248 169.38 67.3767 175.444 67.3767 178.579C67.3767 179.997 67.2545 181.778 67.0284 183.778C65.363 180.512 62.6865 176.916 59.2076 176.177C53.7684 175.02 57.0395 175.065 59.4433 175.098C59.8166 175.103 60.1689 175.108 60.4646 175.108C62.6638 175.108 63.6064 174.039 61.0927 172.703C59.0822 171.635 56.0659 165.847 54.8088 163.087C56.1705 165.847 60.1502 171.368 65.1775 171.368C66.7481 171.368 68.0052 170.032 67.0626 167.361C66.2251 164.988 68.8602 154.813 74.0865 148.076Z" fill="#2068D9"/>
<path d="M90.676 84.0803L92.8609 71.657L108.427 74.8978C108.063 76.5183 108.099 81.5416 108.973 87.5914C109.847 93.6409 112.432 96.8639 113.889 97.8542L90.676 84.0803Z" fill="#FEBE9D"/>
<path d="M92.9957 71.6567L108.245 74.8884C107.978 76.0993 107.931 79.2144 108.284 83.2378C97.3997 81.945 93.5566 74.9784 92.9957 71.6567Z" fill="#F2AD8A"/>
<path d="M84.331 125.912C83.759 122.189 86.334 121.391 88.6227 120.327C90.0198 119.678 91.737 118.831 92.342 117.18C96.3587 118.753 100.375 119.149 106.648 118.341C106.934 122.105 107.563 130.805 107.792 135.485C108.078 141.336 110.081 150.643 103.5 147.452C96.9199 144.261 94.9174 143.995 91.77 144.793C88.6227 145.591 86.334 144.793 86.0478 139.74C85.7616 134.687 84.9034 126.975 84.331 125.912Z" fill="#8CB9FF"/>
<path d="M91.219 144.941C90.3433 143.063 89.0206 138.828 89.4402 133.911C90.0078 127.254 91.711 121.929 93.6981 126.988C95.2874 131.035 95.6851 135.775 95.6851 137.638C96.8207 137.017 99.148 134.39 99.3753 128.851C99.6591 121.928 99.943 122.194 100.795 126.188C101.646 130.182 101.93 130.715 102.782 126.188C102.896 125.584 102.989 125.036 103.074 124.54C103.613 121.385 103.797 120.303 106.582 119.827C106.542 119.275 106.505 118.776 106.472 118.342C100.249 119.151 96.2638 118.755 92.2786 117.18C91.6784 118.833 89.9747 119.681 88.5884 120.331C88.3993 120.42 88.2078 120.507 88.0168 120.594C85.9135 121.55 83.8098 122.506 84.3305 125.923C84.8981 126.988 85.7495 134.71 86.0337 139.769C86.3024 144.558 88.3519 145.529 91.219 144.941Z" fill="#7EAEFA"/>
<path opacity="0.5" d="M84.889 128.346C85.9661 126.085 87.8513 122.972 89.7364 122.444C92.5816 121.648 93.1508 121.117 94.0042 120.321C94.8576 119.524 95.7114 120.055 95.9956 121.117C96.2802 122.179 97.134 121.117 97.9874 120.056C98.8408 118.994 100.548 119.79 100.833 120.587C100.934 120.871 101.29 120.682 101.9 120.356C102.847 119.852 104.408 119.02 106.582 119.131C106.561 118.848 106.541 118.583 106.523 118.339C100.285 119.145 96.2914 118.751 92.297 117.18C91.6952 118.827 89.988 119.673 88.5984 120.322C88.4089 120.41 88.2171 120.497 88.0256 120.583C85.9172 121.537 83.8091 122.489 84.3306 125.896C84.4993 126.211 84.6928 127.108 84.889 128.346Z" fill="#70A2F2"/>
<path d="M105.066 78.9571C94.6979 77.6742 86.4055 68.7704 83.6478 64.6717C78.1329 66.0088 77.0299 65.2055 76.7541 61.4631C76.4782 57.7207 83.6478 55.8495 85.0266 49.7013C86.4055 43.5532 91.0928 32.0593 104.329 26.7127C117.565 21.3666 128.87 38.742 129.146 44.0885C129.422 49.4347 128.598 62.1553 125.286 69.4833C121.779 77.2396 118.026 80.5612 105.066 78.9571Z" fill="#FEBE9D"/>
<path d="M84.176 64.1403C78.6926 65.4734 77.4045 65.5084 77.1303 61.7783C71.9211 62.8443 60.6803 66.7276 57.3901 73.7343C53.2775 82.4921 57.3901 83.8908 60.1318 85.2231C62.8736 86.5549 61.5027 90.2846 57.9386 90.8176C54.3745 91.3505 54.1003 88.6864 53.826 87.0879C52.1809 94.2809 57.9386 94.2809 60.4061 93.2154C58.761 97.478 59.3095 100.675 63.1478 101.741C66.9861 102.806 63.1478 106.803 63.1478 110.532C63.1478 114.262 67.2604 116.393 67.5346 119.058C67.8089 121.722 71.0987 123.054 74.3885 124.119C77.6788 125.185 76.3079 126.517 74.9371 128.915C73.5662 131.312 75.7594 133.177 76.0337 136.374C76.3079 139.571 78.5011 139.838 81.2428 140.371C78.5011 135.842 80.1462 134.243 81.7913 132.911L81.8427 132.87C83.4647 131.556 84.8013 130.474 84.2588 126.784C83.7103 123.054 86.1778 122.255 88.3714 121.189C90.5646 120.123 93.5806 118.525 91.387 113.729C89.1938 108.934 96.0481 105.737 97.6928 100.941C99.3379 96.1458 95.4996 90.2846 93.8545 88.1535C92.2097 86.0219 90.5646 82.8253 90.0161 81.493C89.468 80.1611 90.0161 80.1611 90.2904 80.4274C91.6612 81.7597 91.9355 80.6937 92.2097 79.3619C92.4291 78.2959 92.6667 75.1661 92.7578 73.7343C88.5768 70.7645 85.6759 66.3753 84.176 64.1403Z" fill="#2B2B39"/>
<path d="M107.953 82.5588V79.1126C114.769 79.5946 118.661 78.3428 121.442 75.6321C127.099 82.2925 122.091 88.1537 121.269 89.486C119.624 87.3545 116.334 86.5552 115.511 86.5552C114.689 86.5552 113.866 86.8215 113.044 85.4896C112.221 84.1574 111.947 82.5588 110.302 81.4933C108.986 80.6407 108.188 81.8487 107.953 82.5588Z" fill="#2B2B39"/>
<path d="M76.7502 76.3801C78.4089 77.5946 81.2581 81.013 79.3845 84.9695" stroke="#151523" stroke-width="0.8"/>
<path d="M84.1752 79.3865C87.717 82.1143 93.975 88.8898 90.6689 94.1694C86.5364 100.769 85.6507 103.145 85.6507 108.161" stroke="#151523" stroke-width="0.8"/>
<path d="M77.2102 112.026C79.1013 111.232 82.2602 107.95 79.7637 101.175C77.2667 94.3994 80.4256 90.4114 82.3167 89.2646" stroke="#151523" stroke-width="0.8"/>
<path d="M67.6957 91.8411C65.4177 94.0395 62.2286 98.9111 67.6957 100.811C74.5297 103.185 76.17 105.559 73.9832 110.308" stroke="#151523" stroke-width="0.8"/>
<path d="M66.5315 105.154C67.2324 105.974 68.2132 108.324 66.5315 111.167" stroke="#151523" stroke-width="0.8"/>
<path d="M62.9746 76.012C62.032 76.9024 60.7754 79.3241 63.2886 81.8883C66.4308 85.0937 66.1167 86.9633 64.5457 89.1" stroke="#151523" stroke-width="0.8"/>
<path opacity="0.5" d="M69.3056 64.9708C68.0729 66.6254 66.8557 68.4835 65.9091 70.3511C65.0119 72.1208 64.3512 73.912 64.1569 75.5535C63.9627 77.1947 64.2322 78.714 65.2348 79.9073C65.4737 80.1911 65.7069 80.4658 65.9334 80.7321C66.8358 81.7929 67.6287 82.7259 68.1999 83.6115C68.9104 84.7133 69.2475 85.7001 69.0306 86.7159C68.8121 87.736 68.0232 88.839 66.339 90.1474C65.1429 91.0768 63.5089 92.099 61.3404 93.2585C61.2246 93.5284 61.1187 93.7943 61.0236 94.055C63.5364 92.7426 65.4116 91.5915 66.7629 90.5418C68.496 89.1957 69.3956 87.9948 69.6488 86.8114C69.9027 85.6236 69.4939 84.5071 68.7512 83.3548C68.1593 82.4369 67.3357 81.4689 66.431 80.4049L66.4306 80.4045C66.2069 80.1414 65.978 79.8723 65.7463 79.5969C64.8639 78.5468 64.5968 77.1744 64.7823 75.6069C64.9678 74.0402 65.6026 72.3051 66.4863 70.5625C67.5598 68.4449 68.99 66.3341 70.3911 64.5273C70.0289 64.6702 69.6667 64.8183 69.3056 64.9708Z" fill="#1C1C2A"/>
<path opacity="0.5" d="M86.1952 67.2927C85.6511 69.1074 85.2371 71.5582 85.3927 74.1797C85.5926 77.5443 86.733 81.2083 89.7625 84.1606C93.4623 87.7653 94.7691 90.3116 94.7691 92.512C94.7691 94.7223 93.4559 96.6627 91.6587 99.0868C89.85 101.527 88.7845 103.931 88.9262 106.826C89.0492 109.347 90.0861 112.209 92.2813 115.764C92.1706 115.153 91.9537 114.473 91.607 113.713C91.4923 113.462 91.4024 113.215 91.3351 112.972C90.1402 110.603 89.563 108.596 89.4755 106.801C89.3417 104.069 90.3388 101.783 92.1045 99.4009C93.8826 97.0023 95.3191 94.9233 95.3191 92.512C95.3191 90.0899 93.8762 87.411 90.1513 83.7817C87.2413 80.946 86.1359 77.4201 85.9416 74.1486C85.7995 71.7536 86.1466 69.5047 86.6247 67.7831C86.4774 67.6175 86.3341 67.4543 86.1952 67.2927Z" fill="#1C1C2A"/>
<path opacity="0.5" d="M80.7213 140.37C80.178 139.741 79.6617 139.005 79.2593 138.187C78.3661 136.371 78.0377 134.158 79.2044 131.781C80.58 128.978 80.0761 126.483 79.6124 124.187C79.5503 123.88 79.489 123.577 79.4333 123.277C79.1936 121.994 79.0476 120.772 79.3031 119.547C79.557 118.331 80.2122 117.089 81.6209 115.782C83.1163 114.394 83.6772 112.958 83.7895 111.467C83.8834 110.218 83.6605 108.928 83.4352 107.624C83.3958 107.396 83.356 107.167 83.3182 106.938C83.0614 105.385 82.8712 103.793 83.2091 102.113C83.5459 100.439 84.4116 98.6598 86.3039 96.7503L86.3115 96.7424L86.3186 96.7336C87.6314 95.1709 87.8316 93.0593 87.1239 90.9218C86.4352 88.8424 84.8837 86.7161 82.6128 84.973C83.264 83.7307 83.7071 80.7625 81.394 76.8701C79.889 74.3361 78.9528 72.1039 78.8529 69.9584C78.7801 68.3981 79.1487 66.8653 80.0924 65.2791C79.8787 65.2695 79.6812 65.2476 79.4989 65.2134C78.595 66.8075 78.2284 68.375 78.3036 69.9827C78.4095 72.2583 79.3986 74.5809 80.9184 77.1384C83.2593 81.0786 82.6208 83.9222 82.0536 84.852C80.3305 85.9797 77.9498 88.1355 76.3166 91.0002C74.7435 93.7595 73.8583 97.189 74.9414 100.986C74.8498 100.947 74.7559 100.909 74.6603 100.871C70.9852 99.4121 69.7318 97.7319 69.606 96.1417C69.4774 94.5137 70.5099 92.8451 71.7447 91.3748C72.9898 89.8921 74.601 87.6455 75.2693 85.1776C75.9424 82.6919 75.6582 79.9716 73.0956 77.6132C71.1934 75.8626 70.701 73.6081 70.871 71.4718C71.0413 69.3299 71.8768 67.333 72.5933 66.1551L72.12 65.8817C71.3697 67.1156 70.5008 69.191 70.3225 71.4304C70.1441 73.675 70.66 76.109 72.7179 78.0029C75.105 80.1997 75.3704 82.7038 74.7376 85.0411C74.0995 87.3963 72.5487 89.5708 71.3188 91.0356C70.0789 92.5124 68.9114 94.3275 69.0579 96.1827C69.2071 98.0754 70.7034 99.879 74.4529 101.367C74.7411 101.482 75.0098 101.599 75.2598 101.72C76.6143 102.371 77.4068 103.096 77.8208 103.842C78.2324 104.583 78.2865 105.377 78.1022 106.202C77.7273 107.879 76.3859 109.625 75.1643 111.163L75.0098 111.357C74.7746 111.652 74.5469 111.939 74.3367 112.212C73.0801 113.845 72.4922 115.243 72.5288 116.666C72.5559 117.726 72.9284 118.771 73.578 119.909C72.6872 119.247 71.7936 118.517 71.0604 117.684C70.0152 116.496 69.3138 115.12 69.4077 113.459C69.4519 112.676 69.6732 111.82 70.1302 110.88C70.7531 109.599 71.195 108.451 71.3733 107.445C71.5516 106.436 71.4692 105.543 71.0115 104.8C70.5537 104.056 69.7481 103.506 68.5766 103.126C67.5744 102.8 66.2867 102.592 64.677 102.497C64.7988 102.666 64.8812 102.851 64.9314 103.051C66.3759 103.151 67.519 103.347 68.4027 103.634C69.4997 103.99 70.1724 104.479 70.5398 105.075C70.9068 105.671 70.9963 106.42 70.8311 107.353C70.6656 108.29 70.248 109.386 69.6334 110.65C69.1546 111.636 68.9118 112.551 68.8601 113.405C68.5715 114.572 68.1424 116.439 67.7841 118.285C67.7427 118.498 67.7021 118.711 67.6627 118.923C67.6707 118.973 67.6771 119.022 67.6818 119.071C67.7232 119.473 67.8323 119.844 67.9991 120.189C68.0942 119.61 68.2049 119 68.3243 118.384C68.5452 117.247 68.7932 116.101 69.0181 115.118C69.2967 116.222 69.8973 117.185 70.6433 118.033C71.7419 119.281 73.174 120.299 74.3948 121.164L74.7853 120.799C73.6943 119.204 73.1107 117.916 73.0785 116.653C73.0463 115.397 73.5582 114.117 74.7766 112.534C74.8649 112.419 74.9565 112.301 75.0508 112.182C75.017 113.111 75.0444 114.322 75.2049 115.61C75.4222 117.357 75.8871 119.268 76.7927 120.812C77.6043 122.196 77.2838 123.83 76.4838 125.368C76.483 125.369 76.4822 125.371 76.481 125.372C76.6406 125.69 76.6267 126.039 76.5013 126.428C76.6696 126.163 76.8289 125.889 76.9742 125.61C77.8057 124.012 78.2188 122.163 77.2703 120.546C76.4161 119.089 75.9639 117.258 75.7506 115.546C75.5436 113.883 75.5643 112.353 75.6479 111.429C76.84 109.927 78.2387 108.109 78.6396 106.316C78.8453 105.395 78.7916 104.465 78.3044 103.587C77.8315 102.735 76.9666 101.961 75.6081 101.29C74.3678 97.4804 75.2152 94.0361 76.7974 91.2601C78.3462 88.5439 80.5932 86.4804 82.2451 85.3731C84.4598 87.0652 85.948 89.1163 86.6004 91.0866C87.2664 93.0983 87.0566 95.0021 85.9003 96.3861C83.9479 98.3588 83.0284 100.227 82.6694 102.01C82.3115 103.788 82.5165 105.461 82.7752 107.023C82.8146 107.26 82.8548 107.494 82.8946 107.725C83.1199 109.032 83.3297 110.249 83.2409 111.428C83.1382 112.792 82.6335 114.103 81.2416 115.394C79.7629 116.766 79.0432 118.103 78.7642 119.441C78.4867 120.77 78.6503 122.077 78.8919 123.373C78.9496 123.682 79.0113 123.99 79.0734 124.298C79.5356 126.6 80.0005 128.916 78.7084 131.549C77.4554 134.102 77.814 136.489 78.7634 138.419C79.0806 139.064 79.4643 139.66 79.8771 140.196C80.1493 140.257 80.4312 140.313 80.7213 140.37Z" fill="#1C1C2A"/>
<path d="M57.7117 73.8645C60.4323 72.0319 63.3181 70.6567 64.037 72.2043C65.4031 75.1446 68.1348 73.2738 68.9544 71.1351C69.774 68.9968 70.047 69.5314 71.4131 72.7388C71.9978 74.1121 72.3824 73.4278 72.9098 72.4893C73.6139 71.2354 74.5728 69.5286 76.6036 71.6689C78.3152 73.4724 79.9002 71.6753 81.3885 69.9868C82.9882 68.1721 84.4769 66.4836 85.8923 69.5306C86.8126 71.5117 87.4849 73.6444 88.1178 75.6529C88.738 77.6196 89.3203 79.4674 90.0615 80.9373C89.9138 80.2324 90.315 80.2734 90.5363 80.4903C91.9024 81.8266 92.1755 80.7574 92.4489 79.4208C92.6674 78.3516 92.9043 75.2111 92.995 73.7745C88.8287 70.7948 85.669 66.3829 84.1744 64.1403C78.7104 65.4777 77.6966 65.5207 77.4232 61.7783C72.2327 62.8479 61.0317 66.7443 57.7535 73.7745C57.7395 73.8044 57.7256 73.8346 57.7117 73.8645Z" fill="#1C1C2A"/>
<path d="M89.9816 81.5248C89.4327 80.1886 89.9816 80.1886 90.2558 80.4557C90.8768 81.0603 91.2728 81.1726 91.5455 80.9903C93.4019 82.7719 97.6634 86.7627 99.8582 88.4727C102.053 90.1831 107.723 92.036 110.284 92.7485C109.357 90.8781 107.59 86.2281 107.934 82.5936C108.168 81.8811 108.967 80.6695 110.284 81.5248C111.93 82.5936 112.204 84.1969 113.027 85.5331C113.851 86.8694 114.673 86.6023 115.497 86.6023C116.32 86.6023 119.612 87.4039 121.258 89.5418C121.715 89.8981 123.014 90.7177 124.55 91.1452C126.471 91.6797 128.94 94.3522 128.117 97.0243C127.294 99.6967 124.002 102.369 122.356 105.309C120.709 108.248 118.24 117.067 109.735 118.671C108.253 118.95 106.888 119.175 105.62 119.347C99.6051 120.159 95.7536 119.761 91.9017 118.18C92.2723 117.121 92.2082 115.734 91.3532 113.86C89.1584 109.05 96.0171 105.843 97.6634 101.033C99.3097 96.2226 95.4686 90.3435 93.8223 88.2056C92.1764 86.0677 90.5301 82.8607 89.9816 81.5248Z" fill="#8CB9FF"/>
<path d="M102.281 89.6921C103.838 91.8571 106.872 94.8799 110.652 95.2381C116.265 95.7707 117.067 90.7131 116.532 88.3173C114.127 90.181 109.85 91.7779 110.117 88.0514C110.154 87.5324 110.196 87.0392 110.237 86.5699C110.427 84.3548 110.573 82.6663 109.915 81.2779C108.752 80.6741 108.043 81.7906 107.827 82.4625C107.492 86.0823 109.214 90.7139 110.117 92.5772C108.29 92.0573 104.838 90.9285 102.281 89.6921Z" fill="#7EAEFA"/>
<path d="M99.9009 118.722C99.1045 118.516 98.3215 118.273 97.5386 117.992C97.9629 116.934 97.8896 115.548 96.9104 113.674C95.3708 110.73 97.7209 108.386 100.207 105.907C101.779 104.339 103.406 102.717 104.137 100.853C105.476 97.4383 103.645 93.4841 101.795 90.7141C104.145 92.0233 107.781 93.9418 110.42 94.9772C114.505 96.5797 113.563 99.518 108.221 96.8468C106.022 95.7784 106.022 99.2509 110.42 101.121C114.819 102.99 122.988 102.723 125.816 96.3126C128.644 89.9021 132.1 90.7034 129.901 96.8468C127.701 102.99 123.302 109.668 119.846 111.805C118.172 112.84 115.761 113.123 113.291 113.413C110.662 113.721 107.966 114.037 106.022 115.277C103.13 117.121 102.318 118.621 102.255 119.212C101.761 119.133 101.276 119.041 100.798 118.936L99.9009 118.722Z" fill="#7EAEFA"/>
<path opacity="0.5" d="M91.86 117.18C91.9894 116.239 91.7991 115.078 91.1156 113.622C89.738 110.687 91.8413 108.35 94.0655 105.879C95.4726 104.316 96.9287 102.698 97.5823 100.841C97.6798 100.564 97.7582 100.284 97.8199 100.001L100.956 102.971C102.924 104.835 109.672 105.1 113.045 104.302C110.796 105.634 107.985 105.899 102.643 105.1C97.3008 104.301 95.6143 106.698 98.7067 108.295C101.8 109.893 110.796 107.496 113.889 105.366C111.089 109.946 105.754 110.599 101.848 111.077C101.44 111.127 101.047 111.175 100.675 111.225C99.303 111.411 97.7948 111.273 96.4474 111.15C93.9286 110.92 91.9718 110.741 92.5215 112.823C93.1274 115.118 92.4184 116.583 91.86 117.18Z" fill="#70A2F2"/>
<path d="M95.0138 37.2988C96.7524 31.0976 102.077 30.973 104.522 31.6859C105.88 31.9411 104.794 28.746 109.412 28.2114C114.031 27.6768 117.019 30.6172 118.378 32.7555C119.736 34.8938 120.822 37.0321 122.996 38.9029C124.082 42.1103 127.614 45.5852 128.429 46.3869C128.429 47.1889 128.744 52.5016 128.744 54.907C133.362 51.4325 131.418 48.2581 132.505 45.3177C133.374 42.9657 132.686 41.4866 132.233 41.0411C132.324 39.7937 132.396 36.925 131.961 35.4283C131.418 33.5571 129.516 33.2901 128.701 33.2901C129.244 31.9534 128.701 30.6172 127.886 30.0822C127.071 29.5477 126.256 28.2114 125.169 26.0731C124.082 23.9348 119.736 20.4601 117.834 19.6582C115.933 18.8563 115.933 17.5199 115.389 16.9853C108.326 10.8377 102.077 13.5106 100.719 14.0452C99.3604 14.5798 98.5456 14.0452 98.0023 13.778C87.4068 7.36308 80.6149 16.4508 78.7135 19.1237C67.3032 23.9349 63.228 30.0826 64.0432 38.6358C64.858 47.1889 62.4132 50.3964 60.5114 52.2676C58.6095 54.1384 59.1528 56.0096 60.7828 58.1479C63.7713 62.4244 58.6095 62.959 56.7081 64.0281C54.8062 65.0973 56.1648 68.0372 55.3496 69.3739C54.5344 70.7101 54.8062 73.383 56.9795 75.5212C60.2395 69.3739 69.4765 66.701 74.6383 65.6319C79.8002 64.5627 84.6901 57.3458 88.4934 54.1384C92.2971 50.9309 92.8405 45.0502 95.0138 37.2988Z" fill="#2B2B39"/>
<path opacity="0.5" d="M87.8735 54.7303C88.2946 48.2474 89.5576 40.5154 92.1863 34.6638C93.8031 31.0643 95.9199 28.2151 98.6366 26.7829C101.298 25.3802 104.588 25.3106 108.662 27.3318C108.61 27.7327 108.504 28.1124 108.361 28.4671C108.557 28.4137 108.766 28.3664 108.992 28.3261C109.108 27.9715 109.19 27.5957 109.225 27.2013C109.346 25.8583 108.928 24.3318 107.567 22.7337C106.105 21.0157 104.602 19.698 103.264 18.5252C102.853 18.1658 102.459 17.8199 102.086 17.4803C100.94 16.4377 99.9947 15.4528 99.3734 14.2996C99.1083 14.2659 98.8766 14.1928 98.672 14.1086C99.1266 15.1073 99.7953 15.9678 100.595 16.7953C99.2929 16.28 97.6733 15.8089 95.9327 15.5809C92.4761 15.128 88.4909 15.6297 85.5983 18.718C82.5652 21.9567 80.0261 26.597 77.9753 31.3815C75.9222 36.17 74.3496 41.1228 73.2566 45.0014C72.1723 48.8481 70.3441 52.7537 67.9148 55.7915C66.1073 58.052 63.979 59.8181 61.5883 60.7348C61.5545 60.9713 61.4793 61.1862 61.3702 61.3836C64.0518 60.4721 66.3979 58.5555 68.3447 56.1207C70.8277 53.0156 72.6834 49.0423 73.7824 45.1435C74.8722 41.2769 76.4381 36.3475 78.4785 31.5881C80.5209 26.8239 83.0305 22.2502 86.0007 19.0789C88.379 16.5398 91.555 15.8359 94.5606 15.9909C91.6426 17.0894 86.708 19.9555 83.1141 25.4312C80.5599 29.3221 79.0604 34.983 77.5694 40.6106L77.4511 41.0572C75.9123 46.861 74.3532 52.5797 71.6576 56.4053C69.5134 59.4484 66.5165 61.3116 63.6311 62.4038C61.1907 63.3277 58.8406 63.6955 57.1768 63.7612C56.9643 63.8503 56.7692 63.9407 56.6 64.0354C56.4985 64.0923 56.4062 64.1544 56.3222 64.2213L56.3198 64.3021C58.0382 64.3475 60.8714 64.0215 63.8277 62.9022C66.7868 61.7821 69.8847 59.8619 72.1066 56.7086C74.8686 52.7891 76.4481 46.9665 77.9793 41.1913L78.0832 40.7992C79.5862 35.1267 81.0674 29.5374 83.573 25.7198C87.651 19.5068 93.4851 16.7386 95.9128 16.1173C97.7135 16.3587 99.3789 16.8672 100.673 17.4048C97.3716 17.5944 91.9861 19.3518 89.6372 25.4817C88.8352 27.5754 87.7577 31.0034 86.4915 35.032L86.3956 35.3373C85.0864 39.5024 83.5782 44.2893 81.9598 48.9257C80.3405 53.5629 78.6134 58.0413 76.868 61.5906C76.1034 63.1458 75.3375 64.5178 74.5785 65.6447C74.5892 65.6423 74.6 65.6399 74.6111 65.6379C74.8611 65.5862 75.1106 65.5205 75.3594 65.4413C76.0285 64.3916 76.6969 63.1709 77.36 61.8223C79.1193 58.2443 80.8548 53.742 82.476 49.0984C84.0981 44.4533 85.6086 39.6588 86.9174 35.4945L87.0074 35.2079C88.2783 31.1638 89.3522 27.7474 90.1483 25.6692C92.6827 19.0547 98.9041 17.76 101.785 17.9359C102.149 18.2654 102.528 18.5975 102.918 18.9393C104.251 20.1082 105.713 21.3906 107.148 23.0757C108.287 24.4126 108.697 25.6601 108.699 26.7531C104.598 24.776 101.184 24.8337 98.3779 26.3128C95.5048 27.827 93.3239 30.8036 91.6868 34.4485C88.9434 40.5548 87.6773 48.6463 87.2928 55.2808C87.4886 55.0902 87.6824 54.9063 87.8735 54.7303Z" fill="#1C1C2A"/>
<path opacity="0.5" d="M61.1967 58.9818C64.3496 57.8534 66.1989 55.1176 67.4316 51.7729C68.1895 49.7162 68.7213 47.4131 69.1822 45.081C69.3657 44.1531 69.5377 43.2233 69.708 42.3018C69.9675 40.8979 70.2235 39.5135 70.5117 38.1833C71.8602 31.9607 75.8841 23.7798 78.3595 19.3113C78.0832 19.4293 77.8118 19.548 77.5443 19.6676C75.0442 24.2617 71.2827 32.0522 69.9779 38.0726C69.6885 39.4073 69.4294 40.8092 69.1683 42.2214C68.9979 43.1417 68.8272 44.0663 68.6464 44.9795C68.1867 47.3048 67.6609 49.5753 66.9181 51.5917C65.7009 54.8947 63.9197 57.4716 60.9264 58.5085C61.0287 58.6721 61.1187 58.8298 61.1967 58.9818Z" fill="#1C1C2A"/>
<path d="M128.453 47.1045C128.849 47.1355 129.249 47.1558 129.646 47.167C130.45 47.1897 131.256 47.1746 132.029 47.1348C132.05 46.954 132.075 46.7745 132.105 46.5962C131.314 46.6392 130.487 46.6567 129.662 46.6336C129.248 46.6221 128.837 46.6002 128.434 46.5671C128.437 46.7037 128.444 46.8856 128.453 47.1045Z" fill="#3A0A44"/>
<path d="M123.221 39.4973C126.737 41.2184 130.18 41.6113 132.456 41.5265C132.354 41.3354 132.246 41.1909 132.148 41.0946L132.151 41.0564L132.155 41.0011C129.785 41.0445 126.213 40.5569 122.653 38.5989C122.764 38.7012 122.877 38.8027 122.994 38.903C123.061 39.1004 123.137 39.2986 123.221 39.4973Z" fill="#3A0A44"/>
<path opacity="0.5" d="M104.601 20.1014C105.824 18.7242 109.624 16.6896 115.866 17.9273C115.965 18.1256 116.08 18.3374 116.235 18.5504C109.855 17.1377 106.104 19.2186 105.009 20.4529L104.601 20.1014Z" fill="#1C1C2A"/>
<path opacity="0.5" d="M126.681 33.3678C127.367 33.4939 128.06 33.3996 128.752 32.9824C128.72 33.1058 128.679 33.2304 128.628 33.3546C128.765 33.3546 128.933 33.3622 129.121 33.3841C128.298 33.9079 127.444 34.0508 126.582 33.8924C125.369 33.6695 124.188 32.8575 123.093 31.8118C121.385 30.181 119.8 27.8919 118.551 26.0883C118.199 25.5788 117.873 25.1084 117.578 24.7024C116.584 23.3297 114.912 23.0556 113.136 23.3232C111.365 23.59 109.571 24.3875 108.462 25.0431L108.184 24.5853C109.332 23.9063 111.193 23.0758 113.054 22.7955C114.91 22.516 116.848 22.7756 118.019 24.3923C118.326 24.8158 118.661 25.2994 119.021 25.8185C120.268 27.6184 121.806 29.8403 123.47 31.4281C124.54 32.4507 125.627 33.1735 126.681 33.3678Z" fill="#1C1C2A"/>
<path d="M108.749 20.9523C110.381 19.6968 114.464 18.208 117.729 22.2976C120.995 26.3875 124.17 29.0245 125.35 29.8317M112.559 26.3341C115.008 26.9618 120.287 29.0782 121.812 32.5221C123.717 36.8269 127.255 39.5177 129.976 39.2486M127.799 41.939C128.253 42.6567 129.541 43.8763 131.065 43.0153M107.388 15.5717C108.567 15.3924 111.252 15.195 112.559 15.8408" stroke="#151523" stroke-width="0.8"/>
<path d="M102.28 20.8365C98.6663 20.7474 90.6787 23.403 87.6424 34.7382M86.8293 25.3814C84.7511 29.213 80.215 38.481 78.6972 44.8971C76.7994 52.9173 75.444 63.0765 61.8903 65.2152M64.6013 51.5806C65.8663 49.6203 68.2335 44.5229 67.5831 39.8177C66.7699 33.9362 67.8541 28.3222 72.7333 25.1139M94.9617 14.1529C90.1724 13.7965 80.0526 15.4362 77.884 24.8465C75.7151 34.257 71.0166 46.2337 68.9384 51.0457" stroke="#151523" stroke-width="0.8"/>
</g>
<path d="M346.891 29.1301H270.037C266.642 29.1301 263.89 31.8818 263.89 35.2767V52.6992C263.89 56.0935 266.642 58.8458 270.037 58.8458H332.668L351.839 65.0768L346.567 58.8458H346.891C350.285 58.8458 353.037 56.0935 353.037 52.6992V35.2767C353.037 31.8818 350.285 29.1301 346.891 29.1301Z" fill="#FFBE56"/>
<path fill-rule="evenodd" clip-rule="evenodd" d="M284.499 46.3847C286.087 46.3847 287.375 45.0971 287.375 43.5089C287.375 41.9207 286.087 40.6331 284.499 40.6331C282.911 40.6331 281.624 41.9207 281.624 43.5089C281.624 45.0971 282.911 46.3847 284.499 46.3847ZM300.795 46.3847C302.383 46.3847 303.671 45.0971 303.671 43.5089C303.671 41.9207 302.383 40.6331 300.795 40.6331C299.207 40.6331 297.919 41.9207 297.919 43.5089C297.919 45.0971 299.207 46.3847 300.795 46.3847ZM319.487 43.5089C319.487 45.0971 318.2 46.3847 316.611 46.3847C315.023 46.3847 313.736 45.0971 313.736 43.5089C313.736 41.9207 315.023 40.6331 316.611 40.6331C318.2 40.6331 319.487 41.9207 319.487 43.5089ZM332.428 46.3847C334.016 46.3847 335.304 45.0971 335.304 43.5089C335.304 41.9207 334.016 40.6331 332.428 40.6331C330.84 40.6331 329.552 41.9207 329.552 43.5089C329.552 45.0971 330.84 46.3847 332.428 46.3847Z" fill="white"/>
<path d="M231.489 404.301C231.489 456.097 273.478 498.086 325.273 498.086C377.07 498.086 419.061 456.097 419.061 404.301C419.061 352.504 377.07 310.515 325.273 310.515C273.478 310.515 231.489 352.504 231.489 404.301Z" fill="white"/>
<path d="M325.273 497.086C274.03 497.086 232.489 455.545 232.489 404.301C232.489 353.057 274.03 311.515 325.273 311.515C376.517 311.515 418.061 353.057 418.061 404.301C418.061 455.545 376.517 497.086 325.273 497.086Z" stroke="#2773D9" stroke-opacity="0.6" stroke-width="2"/>
<path d="M343.127 342.696C333.607 362.435 317.261 350.663 313.508 342.695C320.956 342.693 318.568 327.597 317.499 320.049H339.498C339.083 331.675 341.743 339.992 343.127 342.696Z" fill="#FCC4AC"/>
<path d="M343.127 342.696C333.607 362.435 317.261 350.663 313.508 342.695C320.956 342.693 318.568 327.597 317.499 320.049H339.498C339.083 331.675 341.743 339.992 343.127 342.696Z" fill="url(#paint1_linear_402_32)"/>
<path d="M293.07 352.418C292.957 384.686 284.144 470.024 282.837 483.305C282.148 490.331 299.295 496.472 318.497 497.845C343.442 499.63 364.307 491.217 368.809 487.381C370.05 449.028 372.016 365.309 372.016 358.195C362.685 351.547 349.322 345.323 343.127 342.697C330.833 350.315 322.042 347.713 316.269 341.818C307.592 343.439 297.121 349.948 293.07 352.418Z" fill="#307FE2"/>
<path d="M293.07 352.418C292.957 384.686 284.144 470.024 282.837 483.305C282.148 490.331 299.295 496.472 318.497 497.845C343.442 499.63 364.307 491.217 368.809 487.381C370.05 449.028 372.016 365.309 372.016 358.195C362.685 351.547 349.322 345.323 343.127 342.697C330.833 350.315 322.042 347.713 316.269 341.818C307.592 343.439 297.121 349.948 293.07 352.418Z" fill="url(#paint2_linear_402_32)"/>
<path d="M293.07 352.418C292.957 384.686 284.144 470.024 282.837 483.305C282.148 490.331 299.295 496.472 318.497 497.845C343.442 499.63 364.307 491.217 368.809 487.381C370.05 449.028 372.016 365.309 372.016 358.195C362.685 351.547 349.322 345.323 343.127 342.697C330.833 350.315 322.042 347.713 316.269 341.818C307.592 343.439 297.121 349.948 293.07 352.418Z" fill="#2773D9"/>
<path opacity="0.35" d="M315.044 342.075C315.193 342.04 315.341 342.008 315.484 341.976C316.321 347.351 317.146 354.563 317.432 361.999C317.788 371.35 317.283 381.087 314.83 387.972C311.807 396.477 311.807 406.806 312.567 416.422C312.888 420.533 313.351 424.507 313.779 428.149V428.149V428.163C313.85 428.773 313.921 429.374 313.987 429.964C314.462 434.077 314.848 437.699 314.848 440.493C314.848 441.1 314.848 441.695 314.848 442.28C314.872 447.044 314.89 451.171 313.565 456.061C312.086 461.552 308.921 467.99 302.221 477.398C301.389 478.577 301.193 480.24 301.473 482.204C301.746 484.163 302.482 486.383 303.468 488.64C304.579 491.191 305.998 493.774 307.4 496.057C307.204 496.018 307.002 495.978 306.806 495.938C305.464 493.729 304.122 491.261 303.058 488.819C302.067 486.544 301.312 484.281 301.027 482.266C300.748 480.256 300.926 478.454 301.853 477.139V477.138C308.54 467.752 311.67 461.363 313.132 455.944C314.438 451.116 314.42 447.049 314.403 442.281V442.279C314.403 441.695 314.397 441.101 314.397 440.493C314.397 437.729 314.017 434.134 313.541 430.016C313.476 429.423 313.405 428.82 313.333 428.207V428.202V428.202C312.906 424.561 312.443 420.577 312.116 416.457C311.356 406.831 311.356 396.421 314.408 387.821C316.826 381.021 317.337 371.357 316.98 362.016C316.701 354.612 315.881 347.43 315.044 342.075Z" fill="white"/>
<path opacity="0.35" d="M286.415 488.938C286.629 489.085 286.849 489.231 287.08 489.376C286.201 487.289 285.548 485.247 285.293 483.43C285.019 481.466 285.209 479.803 286.041 478.624C292.74 469.217 295.906 462.778 297.391 457.287C298.709 452.398 298.692 448.27 298.674 443.506V443.496C298.668 442.915 298.668 442.323 298.668 441.719C298.668 438.925 298.288 435.304 297.813 431.191C297.741 430.6 297.67 429.999 297.599 429.389V429.375V429.375C297.171 425.733 296.708 421.759 296.387 417.648C295.627 408.032 295.627 397.703 298.656 389.198C301.103 382.313 301.608 372.576 301.251 363.226C301.05 357.96 300.58 352.807 300.022 348.339C299.88 348.416 299.737 348.494 299.6 348.572C300.147 352.987 300.604 358.06 300.8 363.242C301.156 372.583 300.646 382.247 298.228 389.047C295.176 397.647 295.176 408.057 295.936 417.683C296.262 421.804 296.726 425.787 297.153 429.428V429.428V429.433C297.225 430.046 297.296 430.649 297.367 431.242C297.842 435.361 298.217 438.955 298.217 441.719C298.217 442.326 298.222 442.92 298.222 443.502V443.507C298.24 448.275 298.258 452.342 296.957 457.17C295.49 462.589 292.36 468.978 285.673 478.364V478.365C284.746 479.68 284.568 481.482 284.847 483.492C285.085 485.18 285.655 487.041 286.415 488.938Z" fill="white"/>
<path opacity="0.35" d="M323.566 498.444C322.444 496.522 321.351 494.448 320.454 492.391C319.462 490.117 318.708 487.854 318.429 485.839C318.144 483.828 318.322 482.027 319.249 480.712V480.711C325.936 471.325 329.072 464.935 330.533 459.517C331.834 454.689 331.816 450.621 331.798 445.853V445.851C331.798 445.268 331.792 444.674 331.792 444.066C331.792 441.302 331.418 437.707 330.943 433.588C330.872 432.994 330.801 432.389 330.729 431.775V431.775C330.308 428.134 329.838 424.15 329.518 420.03C328.757 410.403 328.752 399.993 331.81 391.394C334.228 384.594 334.732 374.93 334.382 365.589C334.121 358.813 333.414 352.223 332.654 347.048C332.802 347.02 332.951 346.991 333.093 346.96C333.853 352.152 334.572 358.768 334.827 365.572C335.184 374.923 334.679 384.66 332.232 391.544C329.209 400.049 329.203 410.379 329.963 419.995C330.29 424.106 330.753 428.08 331.175 431.721V431.721C331.246 432.336 331.317 432.942 331.389 433.537C331.864 437.65 332.244 441.271 332.244 444.066C332.244 444.672 332.244 445.268 332.25 445.853C332.268 450.616 332.285 454.744 330.967 459.634C329.482 465.124 326.322 471.563 319.617 480.97C318.785 482.149 318.595 483.813 318.868 485.776C319.148 487.735 319.884 489.956 320.864 492.213C321.797 494.352 322.949 496.514 324.119 498.502C323.935 498.483 323.751 498.464 323.566 498.444Z" fill="white"/>
<path opacity="0.35" d="M342.145 499.616C340.779 497.38 339.412 494.872 338.331 492.391C337.34 490.116 336.585 487.853 336.3 485.838C336.021 483.828 336.199 482.026 337.126 480.711V480.711C343.813 471.324 346.944 464.935 348.411 459.516C349.711 454.688 349.693 450.621 349.676 445.853C349.676 445.268 349.67 444.674 349.67 444.066C349.67 441.301 349.296 437.706 348.82 433.588C348.749 432.994 348.678 432.39 348.607 431.775V431.774C348.185 428.133 347.716 424.15 347.395 420.03C346.629 410.403 346.629 399.993 349.687 391.393C352.105 384.594 352.61 374.929 352.259 365.589C351.98 358.329 351.184 351.283 350.371 345.962C350.531 346.039 350.691 346.117 350.858 346.195C351.659 351.495 352.431 358.429 352.705 365.571C353.061 374.923 352.556 384.659 350.109 391.544C347.086 400.049 347.08 410.378 347.84 419.994C348.167 424.106 348.63 428.08 349.052 431.721V431.729C349.123 432.341 349.195 432.944 349.266 433.536C349.741 437.649 350.121 441.271 350.121 444.066C350.121 444.672 350.121 445.266 350.127 445.85V445.852C350.145 450.616 350.163 454.743 348.844 459.633C347.359 465.124 344.2 471.563 337.494 480.97C336.663 482.149 336.472 483.812 336.746 485.776C337.025 487.735 337.761 489.955 338.741 492.212C339.852 494.761 341.271 497.343 342.673 499.625C342.495 499.622 342.323 499.619 342.145 499.616Z" fill="white"/>
<path opacity="0.35" d="M360.284 498.718C359.108 496.72 357.95 494.545 357.012 492.391C356.02 490.116 355.266 487.853 354.987 485.838C354.701 483.828 354.886 482.026 355.806 480.711L355.812 480.711C362.5 471.324 365.63 464.935 367.091 459.516C368.392 454.688 368.38 450.621 368.362 445.853C368.356 445.268 368.356 444.674 368.356 444.066C368.356 441.301 367.976 437.706 367.501 433.588C367.429 432.995 367.364 432.391 367.293 431.778V431.775C366.865 428.133 366.402 424.15 366.075 420.03C365.315 410.403 365.309 399.993 368.368 391.393C370.785 384.594 371.296 374.929 370.94 365.589C370.827 362.682 370.637 359.81 370.387 357.069C370.553 357.177 370.708 357.286 370.868 357.395C371.1 360.032 371.284 362.786 371.385 365.571C371.741 374.923 371.237 384.659 368.79 391.543C365.766 400.049 365.76 410.378 366.521 419.994C366.847 424.106 367.311 428.08 367.738 431.721C367.81 432.336 367.875 432.941 367.946 433.536C368.421 437.649 368.801 441.271 368.801 444.066C368.801 444.672 368.807 445.267 368.807 445.852C368.825 450.616 368.843 454.743 367.524 459.633C366.04 465.123 362.88 471.563 356.174 480.97C355.349 482.149 355.153 483.812 355.432 485.776C355.705 487.735 356.442 489.955 357.428 492.212C358.378 494.401 359.56 496.615 360.76 498.641C360.605 498.667 360.445 498.693 360.284 498.718Z" fill="white"/>
<path d="M304.159 288.315C303.862 295.075 304.159 311.593 304.159 323.692C304.159 344.144 334.812 328.286 339.498 320.048C348.728 303.823 338.524 289.191 336.576 288.315H304.159Z" fill="url(#paint3_linear_402_32)"/>
<path d="M304.159 288.315C303.862 295.075 304.159 311.593 304.159 323.692C304.159 344.144 334.812 328.286 339.498 320.048C348.728 303.823 338.524 289.191 336.576 288.315H304.159Z" fill="#FCC4AC"/>
<path d="M339.985 282.353C346.684 281.081 345.704 286.506 345.318 287.389C361.325 291.799 341.867 324.132 339.48 324.805L339.462 318.772C339.438 316.367 344.142 313.917 341.57 309.692C338.155 304.083 337.413 315.105 337.413 315.105C334.989 313.829 334.11 304.682 336.367 299.507C328.444 303.002 323.247 296.491 322.244 294.631C316.655 297.88 308.09 296.575 305.334 293.9C304.895 295.392 304.022 298.171 304.022 303.036C297.631 299.595 294.335 286.891 297.714 288.05C297.281 262.752 319.607 271.848 322.244 274.854C324.875 277.861 325.498 277.019 325.843 276.794C335.251 272.201 339.824 276.752 338.945 279.652C338.06 282.551 339.723 282.412 339.985 282.353Z" fill="#6E000E"/>
<path d="M207.676 395.481C202.887 395.906 198.726 393.048 199.658 392.725C212.119 388.401 228.872 393.787 238.556 396.758C241.955 403.626 236.314 411.238 233.069 414.185C231.434 412.534 228.051 410.398 225.833 410.398C214.561 409.778 203.712 425.952 192.688 417.901C183.869 411.46 199.006 400.27 207.676 395.481Z" fill="#F4B88E"/>
<path d="M207.676 395.481C202.887 395.906 198.726 393.048 199.658 392.725C212.119 388.401 228.872 393.787 238.556 396.758C241.955 403.626 236.314 411.238 233.069 414.185C231.434 412.534 228.051 410.398 225.833 410.398C214.561 409.778 203.712 425.952 192.688 417.901C183.869 411.46 199.006 400.27 207.676 395.481Z" fill="#FCC4AC"/>
<path d="M293.069 352.413C294.239 374.048 290.693 411.312 287.997 430.274C285.146 437.42 224.471 415.17 226.083 410.868C227.696 406.566 231.734 400.261 233.728 395.197C235.096 391.723 270.019 408.09 271.31 402.219C272.602 396.348 273.596 363.355 293.069 352.413Z" fill="#307FE2"/>
<path d="M293.069 352.413C294.239 374.048 290.693 411.312 287.997 430.274C285.146 437.42 224.471 415.17 226.083 410.868C227.696 406.566 231.734 400.261 233.728 395.197C235.096 391.723 270.019 408.09 271.31 402.219C272.602 396.348 273.596 363.355 293.069 352.413Z" fill="url(#paint4_linear_402_32)"/>
<path d="M293.069 352.413C294.239 374.048 290.693 411.312 287.997 430.274C285.146 437.42 224.471 415.17 226.083 410.868C227.696 406.566 231.734 400.261 233.728 395.197C235.096 391.723 270.019 408.09 271.31 402.219C272.602 396.348 273.596 363.355 293.069 352.413Z" fill="#2773D9"/>
<path opacity="0.35" fill-rule="evenodd" clip-rule="evenodd" d="M290.167 354.07C285.789 365.859 284.572 382.801 286.55 395.65C287.536 402.058 288.064 407.686 287.215 412.294C286.371 416.885 284.162 420.456 279.658 422.774C277.99 423.633 276.448 423.526 274.823 422.933C273.614 422.492 272.381 421.79 271.025 421.019C270.537 420.741 270.032 420.454 269.507 420.167C265.561 418.009 260.62 415.951 253.243 418.221C247.493 419.991 241.784 418.15 237.233 415.29C232.676 412.426 229.328 408.571 228.301 406.394L227.895 406.586C228.968 408.862 232.388 412.775 236.994 415.67C241.604 418.567 247.452 420.473 253.375 418.651C260.589 416.431 265.398 418.432 269.291 420.561C269.797 420.837 270.291 421.118 270.773 421.392C272.14 422.17 273.422 422.899 274.669 423.355C276.376 423.978 278.055 424.105 279.864 423.174C284.512 420.782 286.793 417.082 287.654 412.375C288.521 407.686 287.975 401.99 286.989 395.581C285.023 382.796 286.241 365.933 290.588 354.226L290.167 354.07ZM280.863 367.146C281.006 366.388 281.138 365.689 281.252 365.061L280.811 364.98C280.697 365.605 280.566 366.302 280.423 367.059C279.651 371.151 278.544 377.02 277.963 383.024C277.275 390.127 277.317 397.477 279.557 402.314C282.19 407.996 281.125 411.924 278.752 413.863C276.362 415.815 272.559 415.832 269.535 413.513C267.898 412.258 265.297 410.722 261.919 410.268C258.535 409.814 254.392 410.448 249.68 413.503C248.475 414.284 246.58 414.42 244.415 414C242.261 413.583 239.884 412.625 237.754 411.282C235.624 409.938 233.756 408.217 232.605 406.282C231.456 404.352 231.025 402.217 231.744 400.02L231.317 399.88C230.549 402.226 231.019 404.496 232.22 406.512C233.417 408.524 235.344 410.292 237.514 411.661C239.686 413.032 242.115 414.012 244.33 414.441C246.535 414.867 248.574 414.756 249.924 413.88C254.552 410.879 258.588 410.273 261.859 410.713C265.135 411.153 267.664 412.644 269.262 413.87C272.426 416.295 276.462 416.313 279.036 414.211C281.625 412.095 282.647 407.915 279.965 402.125C277.78 397.409 277.723 390.17 278.41 383.067C278.989 377.085 280.091 371.239 280.863 367.146Z" fill="white"/>
<path d="M233.728 395.197C231.734 400.262 227.696 406.566 226.083 410.868C225.808 411.605 227.358 412.868 230.132 414.42C234.586 411.122 238.437 400.501 239.805 395.603C236.42 394.687 234.064 394.345 233.728 395.197Z" fill="#105CC1"/>
<path d="M358.989 500.889C361.103 499.908 368.237 485.698 372.014 475.816L363.449 468.952C351.405 472.995 346.415 485.047 349.439 484.551C352.462 484.054 352.741 485.688 350.139 489.118C340.144 502.276 356.079 502.243 358.989 500.889Z" fill="#FCC4AC"/>
<path d="M397.303 427.191C402.631 409.628 385.312 368.833 372.014 358.196C372.014 362.539 371.182 382.639 370.731 409.326C378.363 423.001 359.547 464.601 357.789 468.11C356.025 471.619 371.396 484.735 373.908 479.66C376.421 474.584 391.311 446.939 397.303 427.191Z" fill="#307FE2"/>
<path d="M397.303 427.191C402.631 409.628 385.312 368.833 372.014 358.196C372.014 362.539 371.182 382.639 370.731 409.326C378.363 423.001 359.547 464.601 357.789 468.11C356.025 471.619 371.396 484.735 373.908 479.66C376.421 474.584 391.311 446.939 397.303 427.191Z" fill="url(#paint5_linear_402_32)"/>
<path d="M397.303 427.191C402.631 409.628 385.312 368.833 372.014 358.196C372.014 362.539 371.182 382.639 370.731 409.326C378.363 423.001 359.547 464.601 357.789 468.11C356.025 471.619 371.396 484.735 373.908 479.66C376.421 474.584 391.311 446.939 397.303 427.191Z" fill="#2773D9"/>
<path opacity="0.35" fill-rule="evenodd" clip-rule="evenodd" d="M373.906 369.841C373.187 368.952 372.528 368.137 371.958 367.41L371.601 367.687C372.177 368.422 372.848 369.244 373.573 370.139C375.907 373.019 378.859 376.654 381.353 380.586C384.632 385.746 387.091 391.359 386.402 396.387C385.951 399.632 386.657 403.02 387.81 406.402C388.605 408.745 389.615 411.103 390.607 413.419C391.047 414.441 391.486 415.455 391.896 416.455C393.244 419.735 394.337 422.875 394.515 425.763C394.687 428.638 393.951 431.258 391.629 433.518C387.162 437.876 386.242 441.82 385.357 445.583C385.244 446.074 385.131 446.562 385.006 447.048C384.484 449.147 383.83 451.199 382.423 453.275C381.015 455.35 378.847 457.463 375.278 459.665C373.888 460.521 372.629 462.132 371.554 464.056C370.473 465.986 369.558 468.254 368.875 470.455C368.186 472.655 367.723 474.796 367.545 476.472C367.455 477.309 367.432 478.039 367.497 478.606C367.515 478.784 367.545 478.95 367.586 479.1C365.977 478.184 364.284 476.929 362.769 475.575C361.95 471.855 362.324 467.393 363.732 463.467C365.145 459.513 367.58 456.141 370.829 454.603C373.846 453.177 375.438 451.381 376.293 449.336C377.137 447.306 377.244 445.049 377.321 442.731C377.327 442.636 377.327 442.542 377.333 442.447C377.404 440.206 377.481 437.903 378.17 435.617C378.883 433.242 380.255 430.879 382.981 428.643C385.689 426.424 386.604 424.174 386.432 421.89C386.271 419.63 385.048 417.378 383.599 415.142C383.141 414.436 382.66 413.733 382.185 413.029C381.134 411.486 380.077 409.941 379.263 408.375C378.075 406.101 377.422 403.832 377.998 401.535C380.938 389.815 373.799 382.248 371.554 380.162L371.245 380.491C373.46 382.546 380.439 389.953 377.558 401.426C376.947 403.879 377.659 406.268 378.865 408.582C379.691 410.173 380.771 411.754 381.829 413.309C382.31 414.007 382.779 414.701 383.224 415.387C384.674 417.62 385.832 419.788 385.986 421.922C386.141 424.032 385.321 426.149 382.702 428.295C379.898 430.589 378.479 433.029 377.742 435.488C377.036 437.831 376.958 440.187 376.881 442.416C376.881 442.516 376.875 442.616 376.875 442.716C376.792 445.045 376.685 447.221 375.877 449.164C375.076 451.093 373.567 452.812 370.639 454.198C367.242 455.805 364.741 459.299 363.31 463.316C361.873 467.335 361.48 471.916 362.348 475.743L362.365 475.813L362.419 475.861C364.177 477.441 366.184 478.897 368.038 479.859L368.275 479.477C368.21 479.433 368.138 479.344 368.079 479.184C368.02 479.026 367.972 478.817 367.943 478.556C367.883 478.035 367.901 477.341 367.99 476.52C368.162 474.88 368.62 472.768 369.303 470.589C369.98 468.409 370.882 466.171 371.946 464.276C373.009 462.374 374.22 460.843 375.515 460.047C379.12 457.82 381.342 455.666 382.797 453.527C384.246 451.387 384.917 449.276 385.446 447.157C385.564 446.666 385.683 446.175 385.796 445.682C386.675 441.929 387.572 438.103 391.943 433.839C394.373 431.473 395.139 428.719 394.961 425.736C394.782 422.767 393.66 419.567 392.312 416.285C391.896 415.27 391.456 414.249 391.011 413.222C390.025 410.915 389.021 408.584 388.231 406.257C387.091 402.901 386.408 399.592 386.842 396.448C387.56 391.251 385.018 385.519 381.734 380.346C379.221 376.388 376.246 372.723 373.906 369.841Z" fill="white"/>
<path d="M366.188 447.336C370.916 433.689 375.044 417.052 370.732 409.327C382.314 417.447 373.517 435.616 366.188 447.336Z" fill="#105CC1"/>
<path d="M357.789 468.11C356.025 471.62 371.396 484.735 373.908 479.66C374.104 479.269 374.372 478.744 374.698 478.099C371.016 477.276 362.725 473.612 358.983 465.534C358.407 466.821 357.985 467.712 357.789 468.11Z" fill="#307FE2"/>
<path d="M357.789 468.11C356.025 471.62 371.396 484.735 373.908 479.66C374.104 479.269 374.372 478.744 374.698 478.099C371.016 477.276 362.725 473.612 358.983 465.534C358.407 466.821 357.985 467.712 357.789 468.11Z" fill="url(#paint6_linear_402_32)"/>
<path d="M357.789 468.11C356.025 471.62 371.396 484.735 373.908 479.66C374.104 479.269 374.372 478.744 374.698 478.099C371.016 477.276 362.725 473.612 358.983 465.534C358.407 466.821 357.985 467.712 357.789 468.11Z" fill="#105CC1"/>
<path d="M248.638 306.029H171.784C168.389 306.029 165.637 308.781 165.637 312.175V329.598C165.637 332.992 168.389 335.744 171.784 335.744H234.415L253.586 341.975L248.314 335.744H248.638C252.032 335.744 254.784 332.992 254.784 329.598V312.175C254.784 308.781 252.032 306.029 248.638 306.029Z" fill="#8BBAFA"/>
<path fill-rule="evenodd" clip-rule="evenodd" d="M186.246 323.283C187.834 323.283 189.122 321.996 189.122 320.408C189.122 318.819 187.834 317.532 186.246 317.532C184.658 317.532 183.371 318.819 183.371 320.408C183.371 321.996 184.658 323.283 186.246 323.283ZM202.542 323.283C204.13 323.283 205.418 321.996 205.418 320.408C205.418 318.819 204.13 317.532 202.542 317.532C200.954 317.532 199.666 318.819 199.666 320.408C199.666 321.996 200.954 323.283 202.542 323.283ZM221.234 320.408C221.234 321.996 219.947 323.283 218.358 323.283C216.77 323.283 215.483 321.996 215.483 320.408C215.483 318.819 216.77 317.532 218.358 317.532C219.947 317.532 221.234 318.819 221.234 320.408ZM234.175 323.283C235.763 323.283 237.051 321.996 237.051 320.408C237.051 318.819 235.763 317.532 234.175 317.532C232.587 317.532 231.299 318.819 231.299 320.408C231.299 321.996 232.587 323.283 234.175 323.283Z" fill="white"/>
</g>
<defs>
<filter id="filter0_d_402_32" x="-58" y="-48.637" width="311.318" height="311.318" filterUnits="userSpaceOnUse" color-interpolation-filters="sRGB">
<feFlood flood-opacity="0" result="BackgroundImageFix"/>
<feColorMatrix in="SourceAlpha" type="matrix" values="0 0 0 0 0 0 0 0 0 0 0 0 0 0 0 0 0 0 127 0" result="hardAlpha"/>
<feOffset dy="-17"/>
<feGaussianBlur stdDeviation="29"/>
<feColorMatrix type="matrix" values="0 0 0 0 0.696557 0 0 0 0 0.836898 0 0 0 0 0.818186 0 0 0 0.05 0"/>
<feBlend mode="normal" in2="BackgroundImageFix" result="effect1_dropShadow_402_32"/>
<feBlend mode="normal" in="SourceGraphic" in2="effect1_dropShadow_402_32" result="shape"/>
</filter>
<linearGradient id="paint0_linear_402_32" x1="486.728" y1="50.3508" x2="490.601" y2="74.2354" gradientUnits="userSpaceOnUse">
<stop stop-color="#F4AF8A"/>
<stop offset="1" stop-color="#F9C0A1" stop-opacity="0"/>
</linearGradient>
<linearGradient id="paint1_linear_402_32" x1="322.268" y1="336.784" x2="331.961" y2="341.735" gradientUnits="userSpaceOnUse">
<stop stop-color="#F3AD8F"/>
<stop offset="1" stop-color="#FCC4AC" stop-opacity="0"/>
</linearGradient>
<linearGradient id="paint2_linear_402_32" x1="357.613" y1="466.447" x2="333.369" y2="454.047" gradientUnits="userSpaceOnUse">
<stop stop-color="#026CF0"/>
<stop offset="1" stop-color="#307FE2" stop-opacity="0"/>
</linearGradient>
<linearGradient id="paint3_linear_402_32" x1="301.041" y1="315.947" x2="320.136" y2="318.083" gradientUnits="userSpaceOnUse">
<stop stop-color="#FEA568"/>
<stop offset="1" stop-color="#F4B88E"/>
</linearGradient>
<linearGradient id="paint4_linear_402_32" x1="265.668" y1="430.38" x2="266.922" y2="419.993" gradientUnits="userSpaceOnUse">
<stop stop-color="#0154F7"/>
<stop offset="1" stop-color="#307FE2" stop-opacity="0"/>
</linearGradient>
<linearGradient id="paint5_linear_402_32" x1="396.317" y1="430.785" x2="387.67" y2="427.135" gradientUnits="userSpaceOnUse">
<stop stop-color="#0071FF"/>
<stop offset="1" stop-color="#307FE2" stop-opacity="0"/>
</linearGradient>
<linearGradient id="paint6_linear_402_32" x1="396.317" y1="430.786" x2="387.67" y2="427.135" gradientUnits="userSpaceOnUse">
<stop stop-color="#0071FF"/>
<stop offset="1" stop-color="#307FE2" stop-opacity="0"/>
</linearGradient>
<clipPath id="clip0_402_32">
<rect width="585.521" height="501.472" fill="white"/>
</clipPath>
</defs>
</svg>
